<svg xmlns="http://www.w3.org/2000/svg" width="289" height="555" viewBox="0 0 289 555">
  <g fill="none" fill-rule="evenodd">
    <path fill="#E6E6E7" d="M242.524,83.246 C240.919,83.246 239.618,84.547 239.618,86.153 C239.618,87.758 240.919,89.061 242.524,89.061 C244.129,89.061 245.432,87.758 245.432,86.153 C245.432,84.547 244.129,83.246 242.524,83.246"/>
    <path fill="#8BB8DC" d="M242.524 84.559C241.646 84.559 240.931 85.274 240.931 86.153 240.931 87.035 241.646 87.746 242.524 87.746 243.404 87.746 244.117 87.035 244.117 86.153 244.117 85.274 243.404 84.559 242.524 84.559M236.771 109.985C235.475 106.156 226.102 103.233 220.616 110.856 215.125 118.48 214.445 133.592 219.912 139.973 225.378 146.354 230.029 146.559 233.758 144.184 238.84 140.955 232.532 135.643 233.076 126.629 233.617 117.611 239.117 116.881 236.771 109.985"/>
    <polygon fill="#78ABCE" points="150.342 405.436 167.053 405.436 167.053 390.205 150.342 390.205"/>
    <polygon fill="#78ABCE" points="150.342 455.944 167.053 455.944 167.053 448.33 150.342 448.33"/>
    <polygon fill="#8BB8DC" points="152.867 448.33 164.525 448.33 164.525 405.436 152.867 405.436"/>
    <polygon fill="#78ABCE" points="106.191 464.082 211.199 464.082 211.199 455.631 106.191 455.631"/>
    <path fill="#629ABF" d="M106.194 458.004C101.844 458.004 98.316 461.532 98.316 465.883 98.316 470.23 101.844 473.756 106.194 473.756 110.542 473.756 114.066 470.23 114.066 465.883 114.066 461.532 110.542 458.004 106.194 458.004M211.201 458.004C206.85 458.004 203.324 461.532 203.324 465.883 203.324 470.23 206.85 473.756 211.201 473.756 215.55 473.756 219.074 470.23 219.074 465.883 219.074 461.532 215.55 458.004 211.201 458.004"/>
    <polygon fill="#8BB8DC" points="43.136 114.092 92.637 114.092 92.637 96.092 43.136 96.092"/>
    <polygon fill="#A0CFE6" points="69.387 85.09 85.512 85.09 85.512 34.967 69.387 34.967"/>
    <polygon fill="#8BB8DC" points="69.387 41.342 85.512 41.342 85.512 34.967 69.387 34.967"/>
    <polygon fill="#8BB8DC" points="69.387 85.09 85.512 85.09 85.512 80.216 69.387 80.216"/>
    <path fill="#601302" d="M236.785,193.008 C207.401,175.195 168.495,137.885 146.995,134.985 C122.682,131.702 51.474,78.039 54.284,110.141 C63.48,215.444 25.448,201.119 25.448,201.119 C25.448,201.119 58.87,226.95 93.17,228.193 C127.464,229.441 166.686,233.504 201.521,228.924 C236.356,224.346 264.043,198.895 264.043,198.895 C264.043,198.895 254.069,203.485 236.785,193.008"/>
    <polyline fill="#0975C4" points="115.906 227.895 53.266 251.446 91.364 488.309 200.51 488.377 236.224 251.503 177.096 230.16 115.906 227.895"/>
    <path fill="#FFF" d="M60.978 422.563L55.94 422.785C58.5 424.252 60.978 422.563 60.978 422.563M35.881 251.439C15.46 259.373 2.382 331.283.632 399.442L6.782 424.96 55.94 422.785C52.475 420.799 48.863 413.023 51.058 387.408 54.88 342.888 53.764 325.102 53.764 325.102L98.324 228.817C98.324 228.817 50.065 245.926 35.881 251.439"/>
    <path fill="#F0F1F1" d="M253.609 251.439C239.646 245.4 191.167 228.817 191.167 228.817L235.734 325.102C235.734 325.102 236.778 342.888 240.593 387.408 242.747 412.506 242.067 420.479 241.064 422.659L282.707 424.96 288.86 399.442C287.11 331.283 271.954 259.373 253.609 251.439M241.064 422.659L239.316 422.563C239.316 422.563 240.287 424.347 241.064 422.659"/>
    <polyline fill="#343444" points="52.795 530.787 54.125 554.999 240.264 554.999 241.108 531.017 52.795 530.787"/>
    <polyline fill="#EFB17B" points="140.445 275.788 152.11 276.449 183.625 220.069 109.202 224.129 140.445 275.788"/>
    <polyline fill="#035693" points="98.504 230.823 130.646 284.078 147.167 275.597 102.528 205.773 98.504 230.823"/>
    <polyline fill="#035693" points="145.567 275.584 162.068 284.086 192.226 232.867 190.216 205.801 145.567 275.584"/>
    <path fill="#FFF" d="M102.516,228.817 L57.136,246.537 L43.153,304.098 C43.153,304.098 80.251,385.461 63.5,424.264 C46.393,463.9 41.708,514.967 41.184,554.999 L148.753,554.999 L151.753,410.867 L102.516,228.817"/>
    <polyline fill="#F0F1F1" points="89.056 228.813 77.229 277.51 96.345 296.269 94.598 311.014 151.753 410.867 99.981 218.415 89.056 228.813"/>
    <polyline fill="#D0D2D3" points="63.834 485.932 104.504 485.944 104.504 480.586 63.834 480.561 63.834 485.932"/>
    <path fill="#F0F1F1" d="M255.512,302.744 L236.485,245.172 L191.11,227.433 L141.759,409.449 L141.834,554.999 L250.978,554.999 C249.648,515.57 244.05,464.824 226.84,423.647 C203.521,367.84 255.512,302.744 255.512,302.744"/>
    <path fill="#D0D2D3" d="M152.132 430.309C149.907 430.302 148.109 432.1 148.109 434.321 148.102 436.543 149.913 438.342 152.123 438.342 154.338 438.342 156.15 436.55 156.142 434.324 156.15 432.11 154.345 430.302 152.132 430.309M152.113 472.532C149.9 472.512 148.095 474.325 148.09 476.545 148.09 478.762 149.894 480.561 152.113 480.561 154.329 480.561 156.12 478.762 156.129 476.542 156.142 474.317 154.338 472.516 152.113 472.532M152.378 517.378C150.152 517.376 148.354 519.176 148.354 521.391 148.354 523.621 150.16 525.419 152.378 525.419 154.583 525.419 156.396 523.621 156.396 521.407 156.396 519.18 154.597 517.376 152.378 517.378"/>
    <polyline fill="#D0D2D3" points="186.464 485.967 227.126 485.989 227.132 480.619 186.464 480.612 186.464 485.967"/>
    <polyline fill="#FFF" points="203.267 228.847 192.349 218.444 140.445 410.867 203.685 311.046 195.925 296.301 215.065 277.553 203.267 228.847"/>
    <polyline fill="#D0D2D3" points="102.024 404.576 98.4 418.311 234.347 444.824 230.348 428.967 102.024 404.576"/>
    <path fill="#FFC796" d="M71.035,360.174 C69.057,364.578 76.275,369.162 76.275,369.162 C76.275,369.162 58.952,364.461 52.726,366.334 C46.495,368.205 43.018,375.931 42.163,381.367 C41.315,386.806 46.777,396.866 56.281,400.258 C65.798,403.658 94.811,407.864 97.575,404.496 C100.322,401.139 104.985,374.45 104.985,374.45 L81.8,358.789 C81.8,358.789 73.015,355.754 71.035,360.174"/>
    <path fill="#F0F1F1" d="M250.794,390.969 L103.63,366.75 L95.626,412.544 C95.626,412.544 229.65,438.699 260.768,443.833 C291.888,448.966 288.86,392.666 288.86,392.666 L250.794,390.969"/>
    <polyline fill="#D0D2D3" points="59.072 432.263 55.623 445.357 194.68 418.619 192.512 404.576 59.072 432.263"/>
    <path fill="#FFC796" d="M203.219,370.436 C186.285,369.302 176.418,374.912 176.418,374.912 C176.418,374.912 181.082,401.607 183.828,404.962 C186.587,408.322 199.314,394.641 208.83,391.238 C218.343,387.856 227.571,389.21 233.43,388.504 C238.892,387.848 218.732,371.474 203.219,370.436"/>
    <path fill="#FFF" d="M40.876,391.082 L0.632,392.441 C0.632,392.441 -2.405,448.966 28.721,443.833 C59.843,438.699 193.865,412.544 193.865,412.544 L185.854,362.426 L40.876,391.082"/>
    <path fill="#BBBDBF" d="M63.11,379.264 C58.018,379.317 51.794,378.244 49.92,375.912 C48.649,374.69 47.681,370.17 47.802,364.189 C47.849,352.218 50.866,334.459 52.657,320.397 L48.533,319.867 C46.756,333.824 43.701,351.604 43.626,364.157 C43.667,370.489 44.117,375.507 46.824,378.699 C50.77,382.848 57.62,383.3 63.082,383.422 C67.533,383.438 71.082,382.981 71.138,382.965 L70.594,378.845 C70.591,378.842 67.253,379.288 63.11,379.264"/>
    <path fill="#57585A" d="M68.155,376.921 C65.284,377.134 63.074,378.838 63.205,380.75 C63.349,382.66 65.767,384.051 68.64,383.846 C71.511,383.638 73.728,381.929 73.583,380.018 C73.454,378.107 71.021,376.721 68.155,376.921"/>
    <path fill="#BBBDBF" d="M108.847,320.711 C110.48,334.795 113.289,352.586 113.214,364.553 C113.25,370.535 112.236,375.047 110.958,376.26 C109.058,378.567 102.823,379.574 97.725,379.453 C93.594,379.435 90.258,378.942 90.252,378.955 L89.671,383.071 C89.72,383.078 93.259,383.586 97.703,383.615 C103.172,383.557 110.03,383.188 114.029,379.071 C116.757,375.909 117.264,370.901 117.37,364.578 C117.442,352.011 114.596,334.215 112.975,320.225 L108.847,320.711"/>
    <path fill="#57585A" d="M92.727 377.061C89.857 376.828 87.406 378.188 87.252 380.1 87.101 382.006 89.294 383.743 92.158 383.983 95.023 384.213 97.464 382.848 97.623 380.949 97.771 379.037 95.585 377.301 92.727 377.061M81.015 279.787C62.215 279.854 48.051 299.2 47.886 322.209L53.32 322.231C53.367 311.78 56.647 302.366 61.748 295.718 66.883 289.046 73.658 285.174 80.979 285.213 88.304 285.26 95.043 289.207 100.098 295.932 105.121 302.651 108.294 312.09 108.231 322.545L113.659 322.578C113.761 299.569 99.81 280.065 81.015 279.787"/>
    <path fill="#57585A" d="M86.595 220.268C81.569 226.793 77.229 235.161 75.557 244.012 74.902 247.52 74.636 253.651 74.636 257.153L74.636 262.241C74.829 267.89 76.522 282.338 76.56 282.477L81.624 282.477C81.624 282.477 79.839 268.764 79.846 262.241L79.846 257.153C79.839 253.907 80.085 248.078 80.673 244.96 82.121 237.162 86.103 229.403 90.702 223.441 95.241 217.468 100.63 213.36 103.712 212.67L102.463 207.625C97.217 209.016 91.672 213.762 86.595 220.268M206.111 220.268C201.023 213.753 195.486 209.016 190.248 207.625L188.986 212.67C192.07 213.36 197.455 217.471 201.988 223.441 206.596 229.403 210.575 237.162 212.03 244.96 212.605 248.024 212.859 251.996 212.851 256.332 212.859 273.783 208.86 296.885 208.864 296.926L214 297.823 214 297.808C214.008 297.745 218.048 274.487 218.059 256.332 218.055 251.793 217.809 247.573 217.146 244.012 215.468 235.158 211.142 226.793 206.111 220.268"/>
    <path fill="#929597" d="M205.939,295.471 C195.598,295.471 187.213,303.86 187.213,314.203 C187.213,324.547 195.598,332.923 205.939,332.923 C216.283,332.923 224.672,324.547 224.672,314.203 C224.672,303.86 216.283,295.471 205.939,295.471"/>
    <path fill="#D0D2D3" d="M205.939,305.186 C200.961,305.186 196.922,309.219 196.922,314.203 C196.922,319.178 200.961,323.221 205.939,323.221 C210.924,323.221 214.957,319.178 214.957,314.203 C214.957,309.219 210.924,305.186 205.939,305.186"/>
    <path fill="#035693" d="M146.412 284.241C144.73 284.241 143.37 285.6 143.37 287.273 143.37 288.946 144.73 290.309 146.412 290.309 148.09 290.309 149.448 288.946 149.448 287.273 149.448 285.6 148.09 284.241 146.412 284.241M146.412 312.33C144.73 312.33 143.37 313.687 143.37 315.36 143.37 317.032 144.73 318.397 146.412 318.397 148.09 318.397 149.448 317.032 149.448 315.36 149.448 313.687 148.09 312.33 146.412 312.33M146.412 340.415C144.73 340.415 143.37 341.774 143.37 343.451 143.37 345.122 144.73 346.485 146.412 346.485 148.09 346.485 149.448 345.122 149.448 343.451 149.448 341.774 148.09 340.415 146.412 340.415"/>
    <path fill="#FFC796" d="M61.416,116.342 C53.087,118.949 55.016,132.378 55.009,137.371 C55.009,142.375 61.968,160.071 66.638,162.016 C78.445,166.943 78.458,148.423 78.458,148.423 L78.458,126.868 C78.458,126.868 69.734,113.75 61.416,116.342"/>
    <path fill="#FFBA7F" d="M230.866,116.564 C222.548,113.966 213.81,127.061 213.81,127.061 L213.81,148.621 C213.81,148.621 213.793,167.722 225.623,162.231 C230.21,160.092 237.257,142.586 237.257,137.586 C237.257,132.589 239.187,119.161 230.866,116.564"/>
    <path fill="#FFC796" d="M167.183,30.283 L125.828,30.272 C95.824,30.262 71.493,56.737 71.472,98.823 L71.457,156.787 C71.445,198.879 112.245,228.382 125.768,233.018 C140.007,237.886 153.948,237.203 167.122,233.026 C181.329,228.522 221.466,198.932 221.485,156.851 L221.507,98.87 C221.507,56.788 197.197,30.293 167.183,30.283"/>
    <path fill="#221F1F" d="M113.024 125.385C108.103 125.385 104.116 129.672 104.116 134.967 104.116 140.248 108.103 144.532 113.016 144.532 117.934 144.532 121.919 140.248 121.919 134.971 121.933 129.686 117.946 125.399 113.024 125.385M180.849 125.412C175.934 125.409 171.937 129.697 171.937 134.989 171.937 140.273 175.927 144.553 180.845 144.553 185.758 144.56 189.744 140.273 189.744 134.989 189.744 129.709 185.758 125.412 180.849 125.412"/>
    <path fill="#601302" d="M196.039 107.131C181.368 103.79 174.896 107.608 171.834 108.168 169.151 108.665 160.601 111.815 161.903 114.162 164.359 118.573 174.813 113.76 179.119 112.483 187.638 109.956 193.196 108.095 209.048 115.912 211.478 117.109 202.01 108.491 196.039 107.131M125.993 108.168C122.938 107.608 116.461 103.79 101.792 107.131 95.824 108.491 86.35 117.109 88.78 115.912 104.627 108.095 110.194 109.956 118.711 112.483 123.011 113.76 133.473 118.573 135.928 114.162 137.232 111.815 128.673 108.665 125.993 108.168"/>
    <path fill="#D15C58" d="M119.561,186.125 C123.893,195.789 130.28,211.561 149.62,211.528 C169.89,211.491 182.444,178.223 182.444,178.223 C156.874,191.248 142.292,192.806 119.561,186.125"/>
    <path fill="#FFF" d="M124.661,187.512 C126.273,193.23 133.744,195.578 148.854,194.428 C168.844,192.887 173.302,187.594 175.776,181.47 C159.649,189.416 137.649,190.549 124.661,187.512"/>
    <path fill="#F98976" d="M149.326,201.754 C149.326,201.754 145.546,198.529 141.074,198.529 C136.604,198.529 128.18,201.535 128.18,201.535 C132.05,207.271 139.126,211.408 149.037,211.465 C161.576,211.528 169.212,200.638 169.212,200.638 C169.212,200.638 161.387,198.589 155.945,198.529 C152.462,198.492 149.326,201.754 149.326,201.754"/>
    <path fill="#F79D5E" d="M158.354,166.188 C150.61,173.131 139.626,171.026 136.404,166.178 C136.404,166.178 139.632,178.653 147.378,178.256 C155.124,177.862 166.104,159.248 158.354,166.188"/>
    <path fill="#221F1F" d="M135.284,127.782 L135.284,127.818 C135.282,128.254 135.202,132.468 133.958,137.127 C133.339,139.456 132.429,141.892 131.128,144.017 C129.825,146.146 128.148,147.954 125.98,149.133 C124.451,149.968 122.144,150.669 119.454,151.131 C116.763,151.597 113.682,151.838 110.552,151.838 C106.496,151.839 102.353,151.432 98.858,150.616 C97.112,150.21 95.529,149.701 94.208,149.105 C92.887,148.512 91.836,147.829 91.134,147.121 C89.772,145.763 88.515,143.715 87.454,141.412 C85.855,137.957 84.678,133.944 83.915,130.813 C83.532,129.247 83.251,127.9 83.067,126.948 C82.974,126.472 82.906,126.095 82.861,125.838 C82.839,125.71 82.822,125.611 82.811,125.546 L82.796,125.452 L80.167,125.869 C80.173,125.904 80.825,130.012 82.261,134.931 C82.98,137.392 83.895,140.056 85.038,142.529 C86.184,145.002 87.547,147.289 89.249,149.001 C90.271,150.023 91.591,150.844 93.115,151.532 C95.403,152.561 98.169,153.292 101.163,153.779 C104.157,154.264 107.377,154.499 110.552,154.5 C113.818,154.499 117.034,154.25 119.908,153.754 C122.783,153.254 125.31,152.521 127.251,151.471 C130.012,149.97 132.047,147.684 133.541,145.17 C135.781,141.393 136.855,137.074 137.402,133.685 C137.945,130.295 137.946,127.831 137.946,127.782 L135.284,127.782"/>
    <path fill="#221F1F" d="M83.844,129.614 L82.928,128.38 L83.836,129.62 L83.844,129.614 L82.928,128.38 L83.836,129.62 C83.837,129.619 83.97,129.521 84.242,129.344 C85.192,128.723 87.787,127.164 91.787,125.768 C95.788,124.371 101.189,123.133 107.799,123.133 C115.861,123.137 125.735,124.965 137.156,130.706 C138.574,131.419 140.304,130.848 141.018,129.429 C141.732,128.01 141.16,126.28 139.741,125.566 C127.568,119.439 116.74,117.377 107.799,117.38 C99.286,117.38 92.499,119.236 87.824,121.111 C83.146,122.987 80.57,124.88 80.413,124.996 C79.138,125.944 78.872,127.746 79.82,129.021 C80.767,130.296 82.569,130.561 83.845,129.614"/>
    <polyline fill="#221F1F" points="84.683 128.008 65.021 113.557 61.94 117.748 81.602 132.199"/>
    <path fill="#221F1F" d="M156.04,127.782 C156.042,127.848 156.039,132.225 157.335,137.373 C157.986,139.948 158.961,142.721 160.461,145.25 C161.959,147.775 164.001,150.071 166.772,151.579 C168.72,152.632 171.257,153.368 174.143,153.87 C177.028,154.368 180.257,154.619 183.537,154.619 C187.785,154.618 192.113,154.2 195.878,153.323 C197.761,152.883 199.505,152.329 201.037,151.639 C202.567,150.947 203.892,150.123 204.919,149.096 C206.625,147.379 207.991,145.082 209.141,142.599 C210.859,138.874 212.07,134.712 212.866,131.463 C213.66,128.216 214.032,125.886 214.036,125.86 L211.407,125.441 C211.407,125.441 211.398,125.496 211.379,125.613 C211.231,126.486 210.498,130.578 209.104,135.122 C208.407,137.393 207.545,139.776 206.522,141.914 C205.502,144.052 204.312,145.939 203.034,147.217 C202.327,147.929 201.27,148.616 199.943,149.212 C197.953,150.111 195.372,150.808 192.532,151.268 C189.692,151.729 186.59,151.957 183.537,151.957 C180.394,151.958 177.3,151.715 174.597,151.247 C171.896,150.783 169.579,150.079 168.044,149.24 C165.796,148.018 164.074,146.12 162.75,143.891 C160.763,140.553 159.724,136.497 159.214,133.291 C158.958,131.688 158.829,130.298 158.765,129.315 C158.733,128.824 158.717,128.434 158.709,128.171 C158.706,128.039 158.704,127.939 158.703,127.873 L158.702,127.782 L156.04,127.782"/>
    <path fill="#221F1F" d="M156.74,130.771 C169.607,124.865 179.949,122.976 187.974,122.974 C195.858,122.977 201.533,124.795 205.231,126.562 C207.079,127.446 208.429,128.32 209.296,128.952 C209.729,129.268 210.041,129.523 210.234,129.688 C210.33,129.771 210.396,129.831 210.433,129.864 L210.466,129.895 L210.507,129.852 L210.465,129.894 L210.466,129.895 L210.507,129.852 L210.465,129.894 L211.815,128.504 L210.454,129.883 L210.465,129.894 L211.815,128.504 L210.454,129.883 C211.589,131.003 213.417,130.992 214.537,129.857 C215.657,128.722 215.646,126.894 214.511,125.774 C214.33,125.595 212.118,123.456 207.725,121.353 C203.335,119.249 196.756,117.196 187.974,117.199 C179.032,117.197 167.835,119.32 154.33,125.523 C152.881,126.188 152.245,127.902 152.911,129.352 C153.576,130.801 155.291,131.436 156.74,130.771"/>
    <polyline fill="#221F1F" points="212.577 132.2 232.262 117.749 229.183 113.556 209.499 128.007"/>
    <path fill="#221F1F" d="M138.539,133.857 L138.548,133.852 C138.678,133.79 140.091,133.125 141.894,132.491 C142.794,132.174 143.792,131.865 144.76,131.641 C145.727,131.416 146.667,131.281 147.412,131.283 C149.496,131.28 151.541,131.79 153.039,132.313 C153.788,132.574 154.401,132.834 154.818,133.026 C155.026,133.121 155.185,133.2 155.288,133.252 L155.399,133.309 L155.421,133.321 L155.483,133.206 L155.42,133.32 L155.421,133.321 L155.483,133.206 L157.11,134.246 L158.96,130.867 C157.202,129.905 156.076,129.291 154.304,128.675 C152.53,128.06 150.108,127.434 147.412,127.431 C146.199,127.433 144.972,127.634 143.78,127.914 C140.223,128.762 136.936,130.358 136.869,130.386 L135.133,131.221 L136.804,134.692 L138.54,133.857"/>
    <path fill="#601302" d="M240.321,67.926 C228.749,23.311 180.262,5.985 172.387,4.02 C138.031,-4.513 118.979,4.677 118.979,4.677 C118.979,4.677 94.646,11.862 88.461,27.487 C71.321,27.76 62.871,40.662 56.507,49.86 C30.747,87.069 43.604,119.106 49.295,167.725 C52.902,198.529 30.009,198.746 25.448,201.119 C25.448,201.119 70.876,219.299 74.922,214.7 C79.719,209.25 56.696,182.41 57.318,156.044 C57.422,151.802 84.91,121.012 98.447,65.42 C98.447,65.42 126.76,100.287 191.167,97.742 C183.079,89.05 180.037,71.489 180.037,71.489 C180.037,71.489 199.069,99.015 218.518,113.647 C228.749,162.85 199.149,215.782 211.813,213.463 C225.643,210.932 237.538,207.785 264.043,198.895 C203.942,186.164 261.953,151.344 240.321,67.926"/>
  </g>
</svg>
